<svg width="215" height="42" viewBox="0 0 215 42" fill="none" xmlns="http://www.w3.org/2000/svg">
<path d="M63.3194 8.99156H58.3559V18.7299H56.1037V8.99156H51.1316V6.83485H63.3194V8.99156Z" fill="#4B4A4B"/>
<path d="M77.2396 17.6433C77.2396 17.7981 77.2107 17.9419 77.1529 18.0746C77.0952 18.2073 77.0143 18.3235 76.9104 18.423C76.8122 18.517 76.6938 18.5917 76.5552 18.647C76.4166 18.7023 76.2665 18.7299 76.1048 18.7299H67.9796C67.7717 18.7299 67.5465 18.7078 67.304 18.6636C67.0672 18.6138 66.8304 18.5391 66.5937 18.4396C66.3627 18.3401 66.1404 18.2129 65.9267 18.058C65.713 17.8977 65.5224 17.7069 65.355 17.4857C65.1933 17.2589 65.0633 16.999 64.9652 16.7059C64.867 16.4073 64.8179 16.0728 64.8179 15.7022V9.86254C64.8179 9.66346 64.841 9.45055 64.8872 9.22382C64.9392 8.99156 65.0171 8.76483 65.1211 8.54362C65.225 8.31689 65.3608 8.10122 65.5282 7.89661C65.6957 7.692 65.8949 7.51227 66.1259 7.35743C66.3627 7.19706 66.6341 7.06987 66.9402 6.97586C67.2462 6.88185 67.5927 6.83485 67.9796 6.83485H77.1356V8.99156H67.9796C67.6851 8.99156 67.4599 9.06621 67.304 9.21552C67.1481 9.36483 67.0701 9.58603 67.0701 9.87913V15.7022C67.0701 15.9787 67.1481 16.1944 67.304 16.3493C67.4657 16.4986 67.6909 16.5732 67.9796 16.5732H74.9874V13.869H68.9931V11.6957H76.1048C76.2665 11.6957 76.4166 11.7262 76.5552 11.787C76.6938 11.8423 76.8122 11.9197 76.9104 12.0192C77.0143 12.1188 77.0952 12.2349 77.1529 12.3676C77.2107 12.4948 77.2396 12.6331 77.2396 12.7824V17.6433Z" fill="#4B4A4B"/>
<path d="M90.9952 18.7299H80.7218C80.5601 18.7299 80.4099 18.7023 80.2713 18.647C80.1327 18.5917 80.0115 18.517 79.9075 18.423C79.8094 18.3235 79.7314 18.2073 79.6736 18.0746C79.6159 17.9419 79.587 17.7981 79.587 17.6433V6.83485H81.8392V16.5732H90.9952V18.7299Z" fill="#4B4A4B"/>
<path d="M110.165 15.2294C110.165 15.6552 110.107 16.0396 109.991 16.3824C109.882 16.7198 109.734 17.0184 109.55 17.2783C109.365 17.5382 109.148 17.7594 108.9 17.9419C108.652 18.1244 108.395 18.2737 108.129 18.3898C107.863 18.506 107.592 18.5917 107.315 18.647C107.043 18.7023 106.786 18.7299 106.544 18.7299H97.8557V16.5732H106.544C106.977 16.5732 107.312 16.4516 107.549 16.2082C107.791 15.9649 107.913 15.6386 107.913 15.2294C107.913 15.0303 107.881 14.8479 107.817 14.682C107.754 14.5161 107.661 14.3723 107.54 14.2506C107.425 14.129 107.28 14.0349 107.107 13.9686C106.939 13.9022 106.752 13.869 106.544 13.869H101.364C101 13.869 100.607 13.8082 100.186 13.6865C99.7643 13.5594 99.3716 13.3575 99.0078 13.081C98.6497 12.8045 98.3494 12.4423 98.1069 11.9944C97.8701 11.5464 97.7517 10.999 97.7517 10.3519C97.7517 9.70493 97.8701 9.16022 98.1069 8.71782C98.3494 8.26989 98.6497 7.90767 99.0078 7.63117C99.3716 7.34914 99.7643 7.14729 100.186 7.02563C100.607 6.89844 101 6.83485 101.364 6.83485H109.03V8.99156H101.364C100.937 8.99156 100.602 9.11598 100.359 9.36483C100.122 9.61368 100.004 9.94272 100.004 10.3519C100.004 10.7667 100.122 11.0957 100.359 11.3391C100.602 11.5768 100.937 11.6957 101.364 11.6957H106.544H106.561C106.804 11.7013 107.061 11.7345 107.332 11.7953C107.604 11.8506 107.872 11.9391 108.138 12.0607C108.409 12.1824 108.666 12.3372 108.909 12.5252C109.151 12.7077 109.365 12.9289 109.55 13.1888C109.74 13.4488 109.89 13.7474 110 14.0847C110.11 14.422 110.165 14.8036 110.165 15.2294Z" fill="#4B4A4B"/>
<path d="M125.072 13.9188C125.072 14.6432 124.942 15.3096 124.683 15.9179C124.423 16.5262 124.062 17.0516 123.6 17.494C123.138 17.9364 122.589 18.282 121.954 18.5309C121.325 18.7742 120.637 18.8958 119.892 18.8958H116.843C116.098 18.8958 115.408 18.7742 114.773 18.5309C114.138 18.282 113.589 17.9364 113.127 17.494C112.665 17.0516 112.301 16.5262 112.036 15.9179C111.776 15.3096 111.646 14.6432 111.646 13.9188V11.646C111.646 10.9271 111.776 10.2635 112.036 9.65516C112.301 9.04133 112.665 8.51597 113.127 8.0791C113.589 7.6367 114.138 7.29107 114.773 7.04222C115.408 6.79337 116.098 6.66895 116.843 6.66895H119.892C120.637 6.66895 121.325 6.79337 121.954 7.04222C122.589 7.29107 123.138 7.6367 123.6 8.0791C124.062 8.51597 124.423 9.04133 124.683 9.65516C124.942 10.2635 125.072 10.9271 125.072 11.646V13.9188ZM122.82 11.646C122.82 11.2202 122.748 10.8358 122.604 10.493C122.465 10.1446 122.266 9.84871 122.006 9.60539C121.752 9.35654 121.443 9.16575 121.079 9.03303C120.721 8.89478 120.326 8.82566 119.892 8.82566H116.843C116.404 8.82566 116.003 8.89478 115.639 9.03303C115.281 9.16575 114.972 9.35654 114.712 9.60539C114.453 9.84871 114.25 10.1446 114.106 10.493C113.967 10.8358 113.898 11.2202 113.898 11.646V13.9188C113.898 14.3446 113.967 14.7317 114.106 15.0801C114.25 15.423 114.453 15.7188 114.712 15.9677C114.972 16.211 115.281 16.4018 115.639 16.54C116.003 16.6728 116.404 16.7391 116.843 16.7391H119.875C120.314 16.7391 120.712 16.6728 121.07 16.54C121.434 16.4018 121.746 16.211 122.006 15.9677C122.266 15.7188 122.465 15.423 122.604 15.0801C122.748 14.7317 122.82 14.3446 122.82 13.9188V11.646Z" fill="#4B4A4B"/>
<path d="M138.707 18.7299H128.433C128.272 18.7299 128.122 18.7023 127.983 18.647C127.844 18.5917 127.723 18.517 127.619 18.423C127.521 18.3235 127.443 18.2073 127.385 18.0746C127.327 17.9419 127.299 17.7981 127.299 17.6433V6.83485H129.551V16.5732H138.707V18.7299Z" fill="#4B4A4B"/>
<path d="M151.873 17.6433C151.873 17.7981 151.844 17.9419 151.787 18.0746C151.729 18.2073 151.648 18.3235 151.544 18.423C151.44 18.517 151.319 18.5917 151.18 18.647C151.042 18.7023 150.895 18.7299 150.739 18.7299H145.663C145.183 18.7299 144.698 18.6802 144.207 18.5806C143.716 18.4811 143.24 18.329 142.778 18.1244C142.322 17.9143 141.892 17.6488 141.487 17.3281C141.083 17.0073 140.728 16.6285 140.422 16.1917C140.122 15.7493 139.885 15.246 139.712 14.682C139.538 14.1124 139.452 13.4792 139.452 12.7824V6.83485H141.704V12.7824C141.704 13.3907 141.791 13.905 141.964 14.3253C142.143 14.7456 142.368 15.0967 142.639 15.3787C142.911 15.6608 143.208 15.882 143.532 16.0423C143.855 16.2027 144.161 16.3216 144.45 16.399C144.744 16.4764 145.001 16.5262 145.221 16.5483C145.446 16.5649 145.593 16.5732 145.663 16.5732H149.621V6.83485H151.873V17.6433Z" fill="#4B4A4B"/>
<path d="M165.724 8.99156H160.761V18.7299H158.509V8.99156H153.537V6.83485H165.724V8.99156Z" fill="#4B4A4B"/>
<path d="M169.657 18.7299H167.405V6.83485H169.657V18.7299Z" fill="#4B4A4B"/>
<path d="M185.327 13.9188C185.327 14.6432 185.197 15.3096 184.937 15.9179C184.677 16.5262 184.316 17.0516 183.854 17.494C183.392 17.9364 182.844 18.282 182.208 18.5309C181.579 18.7742 180.892 18.8958 180.147 18.8958H177.098C176.353 18.8958 175.663 18.7742 175.028 18.5309C174.392 18.282 173.844 17.9364 173.382 17.494C172.92 17.0516 172.556 16.5262 172.29 15.9179C172.03 15.3096 171.9 14.6432 171.9 13.9188V11.646C171.9 10.9271 172.03 10.2635 172.29 9.65516C172.556 9.04133 172.92 8.51597 173.382 8.0791C173.844 7.6367 174.392 7.29107 175.028 7.04222C175.663 6.79337 176.353 6.66895 177.098 6.66895H180.147C180.892 6.66895 181.579 6.79337 182.208 7.04222C182.844 7.29107 183.392 7.6367 183.854 8.0791C184.316 8.51597 184.677 9.04133 184.937 9.65516C185.197 10.2635 185.327 10.9271 185.327 11.646V13.9188ZM183.075 11.646C183.075 11.2202 183.003 10.8358 182.858 10.493C182.72 10.1446 182.52 9.84871 182.26 9.60539C182.006 9.35654 181.697 9.16575 181.334 9.03303C180.976 8.89478 180.58 8.82566 180.147 8.82566H177.098C176.659 8.82566 176.258 8.89478 175.894 9.03303C175.536 9.16575 175.227 9.35654 174.967 9.60539C174.707 9.84871 174.505 10.1446 174.361 10.493C174.222 10.8358 174.153 11.2202 174.153 11.646V13.9188C174.153 14.3446 174.222 14.7317 174.361 15.0801C174.505 15.423 174.707 15.7188 174.967 15.9677C175.227 16.211 175.536 16.4018 175.894 16.54C176.258 16.6728 176.659 16.7391 177.098 16.7391H180.13C180.568 16.7391 180.967 16.6728 181.325 16.54C181.689 16.4018 182.001 16.211 182.26 15.9677C182.52 15.7188 182.72 15.423 182.858 15.0801C183.003 14.7317 183.075 14.3446 183.075 13.9188V11.646Z" fill="#4B4A4B"/>
<path d="M199.966 17.8092C199.966 17.964 199.934 18.1078 199.871 18.2405C199.813 18.3732 199.732 18.4894 199.628 18.5889C199.53 18.6829 199.412 18.7576 199.273 18.8129C199.134 18.8682 198.987 18.8958 198.831 18.8958C198.693 18.8958 198.551 18.871 198.407 18.8212C198.268 18.7714 198.144 18.6912 198.034 18.5806L189.805 10.3519V18.7299H187.553V7.7556C187.553 7.53439 187.617 7.33531 187.744 7.15835C187.876 6.97586 188.044 6.84038 188.246 6.7519C188.46 6.66895 188.679 6.64959 188.904 6.69383C189.13 6.73254 189.323 6.83208 189.485 6.99245L197.714 15.2128V6.83485H199.966V17.8092Z" fill="#4B4A4B"/>
<path d="M214.527 15.2294C214.527 15.6552 214.47 16.0396 214.354 16.3824C214.244 16.7198 214.097 17.0184 213.912 17.2783C213.727 17.5382 213.511 17.7594 213.263 17.9419C213.014 18.1244 212.757 18.2737 212.492 18.3898C212.226 18.506 211.955 18.5917 211.677 18.647C211.406 18.7023 211.149 18.7299 210.906 18.7299H202.218V16.5732H210.906C211.34 16.5732 211.675 16.4516 211.911 16.2082C212.154 15.9649 212.275 15.6386 212.275 15.2294C212.275 15.0303 212.243 14.8479 212.18 14.682C212.116 14.5161 212.024 14.3723 211.903 14.2506C211.787 14.129 211.643 14.0349 211.47 13.9686C211.302 13.9022 211.114 13.869 210.906 13.869H205.726C205.363 13.869 204.97 13.8082 204.548 13.6865C204.127 13.5594 203.734 13.3575 203.37 13.081C203.012 12.8045 202.712 12.4423 202.469 11.9944C202.233 11.5464 202.114 10.999 202.114 10.3519C202.114 9.70493 202.233 9.16022 202.469 8.71782C202.712 8.26989 203.012 7.90767 203.37 7.63117C203.734 7.34914 204.127 7.14729 204.548 7.02563C204.97 6.89844 205.363 6.83485 205.726 6.83485H213.393V8.99156H205.726C205.299 8.99156 204.964 9.11598 204.722 9.36483C204.485 9.61368 204.366 9.94272 204.366 10.3519C204.366 10.7667 204.485 11.0957 204.722 11.3391C204.964 11.5768 205.299 11.6957 205.726 11.6957H210.906H210.924C211.166 11.7013 211.423 11.7345 211.695 11.7953C211.966 11.8506 212.235 11.9391 212.5 12.0607C212.772 12.1824 213.029 12.3372 213.271 12.5252C213.514 12.7077 213.727 12.9289 213.912 13.1888C214.103 13.4488 214.253 13.7474 214.363 14.0847C214.472 14.422 214.527 14.8036 214.527 15.2294Z" fill="#4B4A4B"/>
<path d="M54.3974 34.8029C53.7556 34.8029 53.1341 34.7063 52.533 34.513C51.9399 34.3117 51.4728 34.0541 51.1316 33.7401L51.5825 32.798C51.9074 33.0879 52.3217 33.3254 52.8254 33.5106C53.3372 33.6877 53.8612 33.7763 54.3974 33.7763C55.1042 33.7763 55.6322 33.6595 55.9815 33.426C56.3309 33.1845 56.5055 32.8664 56.5055 32.4719C56.5055 32.182 56.408 31.9485 56.2131 31.7714C56.0262 31.5862 55.7906 31.4453 55.5063 31.3487C55.2301 31.2521 54.8361 31.1434 54.3243 31.0226C53.6825 30.8696 53.1626 30.7166 52.7645 30.5636C52.3745 30.4106 52.0374 30.1771 51.7531 29.8631C51.4769 29.5411 51.3388 29.1103 51.3388 28.5708C51.3388 28.1199 51.4565 27.7133 51.6921 27.351C51.9359 26.9886 52.3014 26.6988 52.7889 26.4814C53.2763 26.264 53.8815 26.1553 54.6045 26.1553C55.1082 26.1553 55.6038 26.2197 56.0912 26.3485C56.5786 26.4774 56.997 26.6625 57.3463 26.9041L56.9442 27.8703C56.5868 27.6449 56.2049 27.4758 55.7987 27.363C55.3926 27.2423 54.9945 27.1819 54.6045 27.1819C53.914 27.1819 53.3941 27.3067 53.0448 27.5563C52.7036 27.8059 52.533 28.128 52.533 28.5225C52.533 28.8124 52.6304 29.0499 52.8254 29.2351C53.0204 29.4122 53.26 29.5531 53.5444 29.6578C53.8368 29.7544 54.2308 29.8591 54.7264 29.9718C55.3682 30.1248 55.884 30.2778 56.274 30.4308C56.6639 30.5838 56.997 30.8173 57.2732 31.1313C57.5576 31.4453 57.6997 31.868 57.6997 32.3994C57.6997 32.8423 57.5779 33.2489 57.3342 33.6193C57.0904 33.9816 56.7208 34.2715 56.2252 34.4889C55.7297 34.6982 55.1204 34.8029 54.3974 34.8029Z" fill="#FC7735"/>
<path d="M67.3886 28.2447C68.201 28.2447 68.8427 28.4782 69.3139 28.9452C69.7932 29.4122 70.0329 30.1047 70.0329 31.0226V34.7063H68.863V31.1554C68.863 30.5355 68.7168 30.0684 68.4244 29.7544C68.14 29.4404 67.7298 29.2834 67.1936 29.2834C66.6006 29.2834 66.1294 29.4686 65.78 29.839C65.4307 30.2013 65.2561 30.7247 65.2561 31.4091V34.7063H64.0862V31.1554C64.0862 30.5355 63.94 30.0684 63.6475 29.7544C63.3632 29.4404 62.9529 29.2834 62.4168 29.2834C61.8237 29.2834 61.3525 29.4686 61.0032 29.839C60.6539 30.2013 60.4792 30.7247 60.4792 31.4091V34.7063H59.3094V28.3051H60.4305V29.2592C60.6661 28.9291 60.9748 28.6795 61.3566 28.5104C61.7384 28.3333 62.1731 28.2447 62.6605 28.2447C63.1642 28.2447 63.611 28.3454 64.0009 28.5467C64.3909 28.748 64.6914 29.0418 64.9027 29.4283C65.1464 29.058 65.4835 28.7681 65.9141 28.5587C66.3528 28.3494 66.8443 28.2447 67.3886 28.2447Z" fill="#FC7735"/>
<path d="M74.5372 28.2447C75.4309 28.2447 76.1133 28.4621 76.5845 28.8969C77.0638 29.3317 77.3034 29.9799 77.3034 30.8414V34.7063H76.1945V33.8608C75.9995 34.1588 75.7193 34.3882 75.3537 34.5493C74.9962 34.7022 74.5697 34.7787 74.0742 34.7787C73.3512 34.7787 72.7703 34.6056 72.3316 34.2594C71.9011 33.9132 71.6858 33.4582 71.6858 32.8946C71.6858 32.331 71.8929 31.8801 72.3072 31.5419C72.7216 31.1957 73.3796 31.0226 74.2813 31.0226H76.1336V30.7931C76.1336 30.2939 75.9873 29.9114 75.6949 29.6457C75.4024 29.38 74.9719 29.2472 74.4032 29.2472C74.0214 29.2472 73.6477 29.3116 73.2821 29.4404C72.9165 29.5612 72.6078 29.7262 72.356 29.9356L71.8686 29.066C72.2016 28.8003 72.5997 28.599 73.0628 28.4621C73.5258 28.3172 74.0173 28.2447 74.5372 28.2447ZM74.2692 33.885C74.716 33.885 75.1019 33.7884 75.4268 33.5951C75.7518 33.3938 75.9873 33.112 76.1336 32.7497V31.8559H74.3301C73.339 31.8559 72.8434 32.1861 72.8434 32.8463C72.8434 33.1684 72.9693 33.422 73.2212 33.6072C73.473 33.7924 73.8223 33.885 74.2692 33.885Z" fill="#FC7735"/>
<path d="M80.5894 29.38C80.7925 29.0096 81.0931 28.7278 81.4911 28.5346C81.8892 28.3413 82.3726 28.2447 82.9412 28.2447V29.3679C82.8762 29.3599 82.7869 29.3559 82.6732 29.3559C82.0395 29.3559 81.5399 29.5451 81.1743 29.9235C80.8169 30.2939 80.6381 30.8253 80.6381 31.5178V34.7063H79.4683V28.3051H80.5894V29.38Z" fill="#FC7735"/>
<path d="M88.2762 34.3319C88.1056 34.4768 87.8944 34.5895 87.6426 34.67C87.3907 34.7425 87.1308 34.7787 86.8627 34.7787C86.2128 34.7787 85.7091 34.6056 85.3516 34.2594C84.9942 33.9132 84.8155 33.418 84.8155 32.7738V29.2592H83.7188V28.3051H84.8155V26.9041H85.9853V28.3051H87.8375V29.2592H85.9853V32.7255C85.9853 33.0718 86.0706 33.3375 86.2412 33.5227C86.4199 33.7079 86.6718 33.8004 86.9967 33.8004C87.3542 33.8004 87.6588 33.6998 87.9107 33.4985L88.2762 34.3319Z" fill="#FC7735"/>
<path d="M99.3728 34.8391L98.2395 33.7159C97.484 34.4406 96.5335 34.8029 95.3881 34.8029C94.8194 34.8029 94.3076 34.7103 93.8527 34.5251C93.3977 34.3399 93.0403 34.0823 92.7803 33.7521C92.5285 33.414 92.4025 33.0315 92.4025 32.6048C92.4025 32.0894 92.561 31.6345 92.8778 31.24C93.2027 30.8374 93.7349 30.4268 94.4741 30.0081C94.1004 29.6377 93.8364 29.3035 93.6821 29.0056C93.5277 28.7077 93.4505 28.3977 93.4505 28.0756C93.4505 27.504 93.6577 27.045 94.072 26.6988C94.4944 26.3526 95.055 26.1794 95.7536 26.1794C96.4035 26.1794 96.9194 26.3364 97.3012 26.6505C97.6831 26.9645 97.874 27.3953 97.874 27.9428C97.874 28.3695 97.7318 28.752 97.4475 29.0902C97.1712 29.4283 96.7082 29.7826 96.0583 30.153L98.1664 32.2304C98.4101 31.7714 98.5848 31.2601 98.6904 30.6965L99.6287 30.9984C99.4825 31.7392 99.2347 32.3833 98.8854 32.9309L100.031 34.0662L99.3728 34.8391ZM95.7536 27.0249C95.3718 27.0249 95.0712 27.1215 94.8519 27.3147C94.6407 27.4999 94.5351 27.7455 94.5351 28.0515C94.5351 28.2689 94.5919 28.4782 94.7057 28.6795C94.8275 28.8808 95.059 29.1546 95.4002 29.5008C95.9608 29.1868 96.3467 28.917 96.5579 28.6916C96.7772 28.4661 96.8869 28.2206 96.8869 27.9549C96.8869 27.673 96.7854 27.4476 96.5823 27.2785C96.3873 27.1094 96.1111 27.0249 95.7536 27.0249ZM95.4612 33.8367C96.3061 33.8367 97.0006 33.571 97.5449 33.0396L95.12 30.6482C94.5351 30.9702 94.1248 31.2722 93.8892 31.554C93.6617 31.8278 93.548 32.1378 93.548 32.484C93.548 32.8866 93.7227 33.2127 94.072 33.4623C94.4294 33.7119 94.8925 33.8367 95.4612 33.8367Z" fill="#FC7735"/>
<path d="M107.246 34.8029C106.604 34.8029 105.983 34.7063 105.382 34.513C104.789 34.3117 104.321 34.0541 103.98 33.7401L104.431 32.798C104.756 33.0879 105.17 33.3254 105.674 33.5106C106.186 33.6877 106.71 33.7763 107.246 33.7763C107.953 33.7763 108.481 33.6595 108.83 33.426C109.18 33.1845 109.354 32.8664 109.354 32.4719C109.354 32.182 109.257 31.9485 109.062 31.7714C108.875 31.5862 108.639 31.4453 108.355 31.3487C108.079 31.2521 107.685 31.1434 107.173 31.0226C106.531 30.8696 106.011 30.7166 105.613 30.5636C105.223 30.4106 104.886 30.1771 104.602 29.8631C104.326 29.5411 104.187 29.1103 104.187 28.5708C104.187 28.1199 104.305 27.7133 104.541 27.351C104.785 26.9886 105.15 26.6988 105.638 26.4814C106.125 26.264 106.73 26.1553 107.453 26.1553C107.957 26.1553 108.452 26.2197 108.94 26.3485C109.427 26.4774 109.846 26.6625 110.195 26.9041L109.793 27.8703C109.435 27.6449 109.054 27.4758 108.647 27.363C108.241 27.2423 107.843 27.1819 107.453 27.1819C106.763 27.1819 106.243 27.3067 105.893 27.5563C105.552 27.8059 105.382 28.128 105.382 28.5225C105.382 28.8124 105.479 29.0499 105.674 29.2351C105.869 29.4122 106.109 29.5531 106.393 29.6578C106.686 29.7544 107.08 29.8591 107.575 29.9718C108.217 30.1248 108.733 30.2778 109.123 30.4308C109.513 30.5838 109.846 30.8173 110.122 31.1313C110.406 31.4453 110.548 31.868 110.548 32.3994C110.548 32.8423 110.427 33.2489 110.183 33.6193C109.939 33.9816 109.569 34.2715 109.074 34.4889C108.578 34.6982 107.969 34.8029 107.246 34.8029Z" fill="#FC7735"/>
<path d="M115.582 28.2447C116.208 28.2447 116.768 28.3816 117.264 28.6554C117.759 28.9291 118.145 29.3116 118.422 29.8027C118.706 30.2939 118.848 30.8615 118.848 31.5057C118.848 32.1498 118.706 32.7215 118.422 33.2207C118.145 33.7119 117.759 34.0943 117.264 34.3681C116.768 34.6419 116.208 34.7787 115.582 34.7787C115.119 34.7787 114.693 34.6902 114.303 34.513C113.921 34.3359 113.596 34.0782 113.328 33.7401V37.0493H112.158V28.3051H113.279V29.3196C113.539 28.9654 113.868 28.6996 114.266 28.5225C114.664 28.3373 115.103 28.2447 115.582 28.2447ZM115.485 33.7642C115.899 33.7642 116.269 33.6716 116.594 33.4864C116.927 33.2932 117.187 33.0275 117.374 32.6893C117.569 32.3431 117.666 31.9485 117.666 31.5057C117.666 31.0628 117.569 30.6723 117.374 30.3342C117.187 29.9879 116.927 29.7222 116.594 29.537C116.269 29.3518 115.899 29.2592 115.485 29.2592C115.079 29.2592 114.709 29.3559 114.376 29.5491C114.051 29.7343 113.791 29.996 113.596 30.3342C113.409 30.6723 113.316 31.0628 113.316 31.5057C113.316 31.9485 113.409 32.3431 113.596 32.6893C113.783 33.0275 114.043 33.2932 114.376 33.4864C114.709 33.6716 115.079 33.7642 115.485 33.7642Z" fill="#FC7735"/>
<path d="M126.301 31.5419C126.301 31.6305 126.293 31.7472 126.277 31.8922H121.037C121.11 32.4558 121.358 32.9107 121.78 33.257C122.211 33.5951 122.743 33.7642 123.377 33.7642C124.149 33.7642 124.77 33.5066 125.241 32.9912L125.887 33.7401C125.595 34.0782 125.229 34.3359 124.79 34.513C124.36 34.6902 123.876 34.7787 123.34 34.7787C122.658 34.7787 122.053 34.6419 121.525 34.3681C120.997 34.0863 120.586 33.6958 120.294 33.1966C120.009 32.6974 119.867 32.1337 119.867 31.5057C119.867 30.8857 120.005 30.3261 120.282 29.8269C120.566 29.3277 120.952 28.9412 121.439 28.6674C121.935 28.3856 122.491 28.2447 123.109 28.2447C123.726 28.2447 124.274 28.3856 124.754 28.6674C125.241 28.9412 125.619 29.3277 125.887 29.8269C126.163 30.3261 126.301 30.8978 126.301 31.5419ZM123.109 29.223C122.548 29.223 122.077 29.3921 121.695 29.7303C121.321 30.0684 121.102 30.5113 121.037 31.0588H125.18C125.115 30.5193 124.892 30.0805 124.51 29.7424C124.136 29.3961 123.669 29.223 123.109 29.223Z" fill="#FC7735"/>
<path d="M133.763 31.5419C133.763 31.6305 133.755 31.7472 133.738 31.8922H128.499C128.572 32.4558 128.819 32.9107 129.242 33.257C129.672 33.5951 130.205 33.7642 130.838 33.7642C131.61 33.7642 132.231 33.5066 132.703 32.9912L133.348 33.7401C133.056 34.0782 132.69 34.3359 132.252 34.513C131.821 34.6902 131.338 34.7787 130.802 34.7787C130.119 34.7787 129.514 34.6419 128.986 34.3681C128.458 34.0863 128.048 33.6958 127.755 33.1966C127.471 32.6974 127.329 32.1337 127.329 31.5057C127.329 30.8857 127.467 30.3261 127.743 29.8269C128.027 29.3277 128.413 28.9412 128.901 28.6674C129.396 28.3856 129.953 28.2447 130.57 28.2447C131.188 28.2447 131.736 28.3856 132.215 28.6674C132.703 28.9412 133.08 29.3277 133.348 29.8269C133.625 30.3261 133.763 30.8978 133.763 31.5419ZM130.57 29.223C130.01 29.223 129.538 29.3921 129.157 29.7303C128.783 30.0684 128.564 30.5113 128.499 31.0588H132.642C132.577 30.5193 132.353 30.0805 131.971 29.7424C131.598 29.3961 131.131 29.223 130.57 29.223Z" fill="#FC7735"/>
<path d="M141.48 25.7446V34.7063H140.359V33.6918C140.099 34.046 139.77 34.3158 139.372 34.501C138.974 34.6861 138.535 34.7787 138.056 34.7787C137.43 34.7787 136.87 34.6419 136.374 34.3681C135.879 34.0943 135.489 33.7119 135.204 33.2207C134.928 32.7215 134.79 32.1498 134.79 31.5057C134.79 30.8615 134.928 30.2939 135.204 29.8027C135.489 29.3116 135.879 28.9291 136.374 28.6554C136.87 28.3816 137.43 28.2447 138.056 28.2447C138.519 28.2447 138.945 28.3333 139.335 28.5104C139.725 28.6795 140.05 28.9331 140.31 29.2713V25.7446H141.48ZM138.153 33.7642C138.56 33.7642 138.929 33.6716 139.262 33.4864C139.595 33.2932 139.855 33.0275 140.042 32.6893C140.229 32.3431 140.322 31.9485 140.322 31.5057C140.322 31.0628 140.229 30.6723 140.042 30.3342C139.855 29.9879 139.595 29.7222 139.262 29.537C138.929 29.3518 138.56 29.2592 138.153 29.2592C137.739 29.2592 137.365 29.3518 137.032 29.537C136.707 29.7222 136.447 29.9879 136.252 30.3342C136.066 30.6723 135.972 31.0628 135.972 31.5057C135.972 31.9485 136.066 32.3431 136.252 32.6893C136.447 33.0275 136.707 33.2932 137.032 33.4864C137.365 33.6716 137.739 33.7642 138.153 33.7642Z" fill="#FC7735"/>
<path d="M149.623 34.8029C148.981 34.8029 148.359 34.7063 147.758 34.513C147.165 34.3117 146.698 34.0541 146.357 33.7401L146.808 32.798C147.133 33.0879 147.547 33.3254 148.051 33.5106C148.562 33.6877 149.086 33.7763 149.623 33.7763C150.329 33.7763 150.857 33.6595 151.207 33.426C151.556 33.1845 151.731 32.8664 151.731 32.4719C151.731 32.182 151.633 31.9485 151.438 31.7714C151.251 31.5862 151.016 31.4453 150.732 31.3487C150.455 31.2521 150.061 31.1434 149.549 31.0226C148.908 30.8696 148.388 30.7166 147.99 30.5636C147.6 30.4106 147.263 30.1771 146.978 29.8631C146.702 29.5411 146.564 29.1103 146.564 28.5708C146.564 28.1199 146.682 27.7133 146.917 27.351C147.161 26.9886 147.527 26.6988 148.014 26.4814C148.502 26.264 149.107 26.1553 149.83 26.1553C150.333 26.1553 150.829 26.2197 151.316 26.3485C151.804 26.4774 152.222 26.6625 152.572 26.9041L152.169 27.8703C151.812 27.6449 151.43 27.4758 151.024 27.363C150.618 27.2423 150.22 27.1819 149.83 27.1819C149.139 27.1819 148.619 27.3067 148.27 27.5563C147.929 27.8059 147.758 28.128 147.758 28.5225C147.758 28.8124 147.856 29.0499 148.051 29.2351C148.246 29.4122 148.485 29.5531 148.77 29.6578C149.062 29.7544 149.456 29.8591 149.952 29.9718C150.593 30.1248 151.109 30.2778 151.499 30.4308C151.889 30.5838 152.222 30.8173 152.498 31.1313C152.783 31.4453 152.925 31.868 152.925 32.3994C152.925 32.8423 152.803 33.2489 152.559 33.6193C152.316 33.9816 151.946 34.2715 151.45 34.4889C150.955 34.6982 150.346 34.8029 149.623 34.8029Z" fill="#FC7735"/>
<path d="M157.301 34.7787C156.659 34.7787 156.082 34.6378 155.57 34.356C155.059 34.0742 154.656 33.6877 154.364 33.1966C154.08 32.6974 153.938 32.1337 153.938 31.5057C153.938 30.8777 154.08 30.3181 154.364 29.8269C154.656 29.3277 155.059 28.9412 155.57 28.6674C156.082 28.3856 156.659 28.2447 157.301 28.2447C157.943 28.2447 158.515 28.3856 159.019 28.6674C159.531 28.9412 159.929 29.3277 160.213 29.8269C160.506 30.3181 160.652 30.8777 160.652 31.5057C160.652 32.1337 160.506 32.6974 160.213 33.1966C159.929 33.6877 159.531 34.0742 159.019 34.356C158.515 34.6378 157.943 34.7787 157.301 34.7787ZM157.301 33.7642C157.715 33.7642 158.085 33.6716 158.41 33.4864C158.743 33.2932 159.003 33.0275 159.19 32.6893C159.376 32.3431 159.47 31.9485 159.47 31.5057C159.47 31.0628 159.376 30.6723 159.19 30.3342C159.003 29.9879 158.743 29.7222 158.41 29.537C158.085 29.3518 157.715 29.2592 157.301 29.2592C156.886 29.2592 156.513 29.3518 156.18 29.537C155.855 29.7222 155.595 29.9879 155.4 30.3342C155.213 30.6723 155.12 31.0628 155.12 31.5057C155.12 31.9485 155.213 32.3431 155.4 32.6893C155.595 33.0275 155.855 33.2932 156.18 33.4864C156.513 33.6716 156.886 33.7642 157.301 33.7642Z" fill="#FC7735"/>
<path d="M162.27 25.7446H163.44V34.7063H162.27V25.7446Z" fill="#FC7735"/>
<path d="M171.693 28.3051V34.7063H170.584V33.7401C170.348 34.0702 170.036 34.3278 169.646 34.513C169.264 34.6902 168.846 34.7787 168.391 34.7787C167.529 34.7787 166.851 34.5452 166.356 34.0782C165.86 33.6032 165.612 32.9067 165.612 31.9888V28.3051H166.782V31.8559C166.782 32.4759 166.932 32.947 167.233 33.269C167.534 33.5831 167.964 33.7401 168.525 33.7401C169.142 33.7401 169.629 33.5549 169.987 33.1845C170.344 32.8141 170.523 32.2907 170.523 31.6144V28.3051H171.693Z" fill="#FC7735"/>
<path d="M177.551 34.3319C177.381 34.4768 177.17 34.5895 176.918 34.67C176.666 34.7425 176.406 34.7787 176.138 34.7787C175.488 34.7787 174.984 34.6056 174.627 34.2594C174.269 33.9132 174.091 33.418 174.091 32.7738V29.2592H172.994V28.3051H174.091V26.9041H175.26V28.3051H177.113V29.2592H175.26V32.7255C175.26 33.0718 175.346 33.3375 175.516 33.5227C175.695 33.7079 175.947 33.8004 176.272 33.8004C176.629 33.8004 176.934 33.6998 177.186 33.4985L177.551 34.3319Z" fill="#FC7735"/>
<path d="M178.966 28.3051H180.135V34.7063H178.966V28.3051ZM179.551 27.0732C179.323 27.0732 179.132 27.0007 178.978 26.8558C178.832 26.7109 178.759 26.5337 178.759 26.3244C178.759 26.115 178.832 25.9379 178.978 25.793C179.132 25.64 179.323 25.5635 179.551 25.5635C179.778 25.5635 179.965 25.6359 180.111 25.7809C180.265 25.9178 180.343 26.0909 180.343 26.3002C180.343 26.5176 180.265 26.7028 180.111 26.8558C179.965 27.0007 179.778 27.0732 179.551 27.0732Z" fill="#FC7735"/>
<path d="M185.135 34.7787C184.493 34.7787 183.917 34.6378 183.405 34.356C182.893 34.0742 182.491 33.6877 182.199 33.1966C181.914 32.6974 181.772 32.1337 181.772 31.5057C181.772 30.8777 181.914 30.3181 182.199 29.8269C182.491 29.3277 182.893 28.9412 183.405 28.6674C183.917 28.3856 184.493 28.2447 185.135 28.2447C185.777 28.2447 186.35 28.3856 186.853 28.6674C187.365 28.9412 187.763 29.3277 188.048 29.8269C188.34 30.3181 188.486 30.8777 188.486 31.5057C188.486 32.1337 188.34 32.6974 188.048 33.1966C187.763 33.6877 187.365 34.0742 186.853 34.356C186.35 34.6378 185.777 34.7787 185.135 34.7787ZM185.135 33.7642C185.55 33.7642 185.919 33.6716 186.244 33.4864C186.577 33.2932 186.837 33.0275 187.024 32.6893C187.211 32.3431 187.304 31.9485 187.304 31.5057C187.304 31.0628 187.211 30.6723 187.024 30.3342C186.837 29.9879 186.577 29.7222 186.244 29.537C185.919 29.3518 185.55 29.2592 185.135 29.2592C184.721 29.2592 184.347 29.3518 184.014 29.537C183.689 29.7222 183.429 29.9879 183.234 30.3342C183.047 30.6723 182.954 31.0628 182.954 31.5057C182.954 31.9485 183.047 32.3431 183.234 32.6893C183.429 33.0275 183.689 33.2932 184.014 33.4864C184.347 33.6716 184.721 33.7642 185.135 33.7642Z" fill="#FC7735"/>
<path d="M193.553 28.2447C194.373 28.2447 195.023 28.4822 195.503 28.9573C195.99 29.4243 196.234 30.1127 196.234 31.0226V34.7063H195.064V31.1554C195.064 30.5355 194.914 30.0684 194.613 29.7544C194.312 29.4404 193.882 29.2834 193.321 29.2834C192.688 29.2834 192.188 29.4686 191.822 29.839C191.457 30.2013 191.274 30.7247 191.274 31.4091V34.7063H190.104V28.3051H191.225V29.2713C191.461 28.9412 191.778 28.6876 192.176 28.5104C192.582 28.3333 193.041 28.2447 193.553 28.2447Z" fill="#FC7735"/>
<path d="M200.251 34.7787C199.723 34.7787 199.215 34.7103 198.728 34.5734C198.24 34.4285 197.858 34.2473 197.582 34.0299L198.07 33.112C198.354 33.3133 198.699 33.4744 199.105 33.5951C199.512 33.7159 199.922 33.7763 200.336 33.7763C201.36 33.7763 201.872 33.4864 201.872 32.9067C201.872 32.7135 201.803 32.5605 201.664 32.4478C201.526 32.335 201.352 32.2545 201.14 32.2062C200.937 32.1498 200.645 32.0894 200.263 32.025C199.743 31.9445 199.317 31.8519 198.984 31.7472C198.659 31.6426 198.378 31.4654 198.143 31.2158C197.907 30.9662 197.789 30.616 197.789 30.1651C197.789 29.5853 198.033 29.1224 198.521 28.7761C199.008 28.4219 199.662 28.2447 200.482 28.2447C200.913 28.2447 201.344 28.2971 201.774 28.4017C202.205 28.5064 202.558 28.6473 202.834 28.8244L202.335 29.7424C201.807 29.4042 201.185 29.2351 200.47 29.2351C199.975 29.2351 199.597 29.3156 199.337 29.4766C199.077 29.6377 198.947 29.851 198.947 30.1168C198.947 30.3261 199.02 30.4912 199.166 30.6119C199.313 30.7327 199.491 30.8213 199.703 30.8777C199.922 30.934 200.227 30.9984 200.616 31.0709C201.136 31.1595 201.555 31.2561 201.872 31.3608C202.197 31.4574 202.473 31.6265 202.7 31.868C202.928 32.1096 203.041 32.4477 203.041 32.8825C203.041 33.4623 202.79 33.9253 202.286 34.2715C201.79 34.6097 201.112 34.7787 200.251 34.7787Z" fill="#FC7735"/>
<path d="M11.049 33.68C17.2257 36.3749 22.2075 34.8544 25.1505 33.9073C12.44 36.9872 3.2891 28.1026 4.54582 17.3599C5.4677 9.4794 11.4908 6.27784 14.3416 5.00525C14.2606 5.76579 14.2031 7.62964 14.6213 9.00073C16.1001 4.54478 18.7426 2.06928 22.1851 0.301008C8.87693 -1.80815 2.66899 7.77488 1.41178 11.1956C-1.48437 19.0758 1.31056 29.4309 11.049 33.68Z" fill="#FC7735"/>
<path d="M20.1974 9.29302C18.9876 9.46272 16.6444 10.4852 14.7901 13.3668C18.2323 11.0759 19.9998 11.3346 22.0335 11.4506C22.3412 9.29611 24.0417 7.89022 25.583 7.67403C26.9158 7.29356 29.9432 7.74942 30.7963 11.1216C31.6182 14.3702 28.2107 16.6535 26.2804 17.5709C24.4832 18.308 20.758 20.3387 19.4803 22.0699C16.4642 26.1565 17.6771 29.147 20.1743 27.0176C22.1721 25.314 28.9423 24.2097 32.5461 23.596C31.8328 27.849 29.5191 35.7357 18.8841 37.2274C10.6827 38.3778 5.50327 33.681 3.37213 30.9084C9.26164 40.4048 23.5843 42.674 33.247 35.2128C40.9773 29.2438 41.3112 19.6337 40.512 15.5747C38.9688 6.85575 32.8155 2.62926 27.7785 3.00121C22.7414 3.37315 20.9949 6.12031 20.1974 9.29302Z" fill="#002A9C"/>
<path d="M24.7796 10.9341C24.7796 11.6517 25.3613 12.2335 26.0789 12.2335C26.7966 12.2335 27.3783 11.6517 27.3783 10.9341C27.3783 10.2165 26.7966 9.63477 26.0789 9.63477C25.3613 9.63477 24.7796 10.2165 24.7796 10.9341Z" fill="#002A9C"/>
</svg>
